<?xml version="1.0" encoding="UTF-8"?>
<svg width="20px" height="19px" viewBox="0 0 20 19" version="1.1" xmlns="http://www.w3.org/2000/svg" xmlns:xlink="http://www.w3.org/1999/xlink">
    <!-- Generator: Sketch 59.1 (86144) - https://sketch.com -->
    <title>web icon</title>
    <desc>Created with Sketch.</desc>
    <g id="For-Build" stroke="none" stroke-width="1" fill="none" fill-rule="evenodd">
        <g id="M-Tablet---Who-we-are" transform="translate(-454.000000, -1362.000000)" fill="#4E9D2D" fill-rule="nonzero">
            <g id="MAP" transform="translate(0.000000, 687.000000)">
                <g id="OVERLAY" transform="translate(0.000000, -76.000000)">
                    <g id="CARD-2" transform="translate(408.000000, 191.000000)">
                        <g id="visit-the-website" transform="translate(46.800002, 560.400022)">
                            <g id="web-icon">
                                <path d="M9.11999982,0 C4.09117528,0 0,4.09117528 0,9.11999982 C0,14.1488244 4.09117528,18.2399996 9.11999982,18.2399996 C14.1488244,18.2399996 18.2399996,14.1488244 18.2399996,9.11999982 C18.2399996,4.09117528 14.1488244,0 9.11999982,0 Z M17.2270647,8.62200605 L13.8359487,8.62200605 C13.7665294,6.99277119 13.3607688,5.43328153 12.6636427,4.04587349 C13.3086228,3.77210728 13.9161231,3.42794404 14.4760402,3.01957611 C16.0541068,4.40665824 17.0914852,6.39374465 17.2270647,8.62200605 Z M9.61799359,1.67942533 C10.2222347,2.21457309 10.7508642,2.82924341 11.1976898,3.50485931 C10.6892668,3.63978694 10.1599855,3.72028724 9.61799359,3.75353028 L9.61799359,1.67942533 Z M10.4731871,1.11103453 C11.6357157,1.30723365 12.7164404,1.74851871 13.6563711,2.38404741 C13.1922722,2.6975749 12.6923229,2.95895645 12.1676044,3.17275482 C11.6924245,2.41403133 11.1250114,1.71983844 10.4731871,1.11103453 Z M8.62200605,1.67942533 L8.62200605,3.7538562 C8.08001413,3.72061316 7.55171053,3.63815738 7.04361348,3.50290384 C7.49011313,2.82826568 8.01809082,2.21424718 8.62200605,1.67942533 Z M6.07206935,3.17373256 C5.54767669,2.95993419 5.05000883,2.69529352 4.58656175,2.38176602 C5.52616649,1.74786688 6.60493572,1.30690774 7.76648664,1.11103453 C7.11466233,1.71983844 6.54724927,2.41435724 6.07206935,3.17373256 Z M8.62200605,4.74919192 L8.62200605,8.62200605 L5.39971258,8.62200605 C5.47043551,7.10814409 5.86250783,5.66500507 6.52443542,4.38742942 C7.19483672,4.58721357 7.8968515,4.71008246 8.62200605,4.74919192 Z M8.62200605,9.61799359 L8.62200605,13.4911336 C7.8968515,13.5302431 7.19451081,13.6521342 6.52410951,13.8519184 C5.86218192,12.5746687 5.47043551,11.1315296 5.39971258,9.61799359 L8.62200605,9.61799359 L8.62200605,9.61799359 Z M8.62200605,14.4867953 L8.62200605,16.5605743 C8.01776491,16.0254265 7.48946131,15.4107562 7.04263575,14.7354662 C7.55105871,14.6005386 8.08001413,14.5197124 8.62200605,14.4867953 Z M7.76681255,17.1289651 C6.6042839,16.932766 5.52355919,16.4914809 4.58330263,15.8559522 C5.04740154,15.5424247 5.54735078,15.2807173 6.07239526,15.0669189 C6.54724927,15.8259683 7.11498824,16.5201612 7.76681255,17.1289651 Z M9.61799359,16.5605743 L9.61799359,14.4867953 C10.1599855,14.5200383 10.6892668,14.6002127 11.1976898,14.7351403 C10.7508642,15.4104303 10.2225606,16.0254265 9.61799359,16.5605743 Z M12.1676044,15.0669189 C12.6923229,15.2810432 13.1932499,15.5420988 13.6570229,15.8556263 C12.7167664,16.491155 11.6363676,16.9330919 10.4731871,17.1289651 C11.1250114,16.5201612 11.6924245,15.8259683 12.1676044,15.0669189 Z M9.61799359,13.4911336 L9.61799359,9.61799359 L12.8402871,9.61799359 C12.7695641,11.1318555 12.3774918,12.5746687 11.7158901,13.8519184 C11.0454888,13.6521342 10.3431481,13.5302431 9.61799359,13.4911336 Z M9.61799359,8.62200605 L9.61799359,4.74919192 C10.3431481,4.71008246 11.0451629,4.58721357 11.7158901,4.38742942 C12.3778177,5.66500507 12.7695641,7.10847 12.8402871,8.62200605 L9.61799359,8.62200605 Z M3.76428538,3.01892429 C4.32420247,3.42729222 4.9310509,3.77210728 5.57668288,4.04554757 C4.87923086,5.43295562 4.47379614,6.99244527 4.40405094,8.62168013 L1.01293498,8.62168013 C1.14851443,6.39374465 2.18621873,4.40633233 3.76428538,3.01892429 Z M1.01293498,9.61799359 L4.40405094,9.61799359 C4.47347023,11.2475544 4.87955678,12.807044 5.57700879,14.194778 C4.93170272,14.4685442 4.32289882,14.8117297 3.76330765,15.2200976 C2.18556691,13.8326896 1.14851443,11.8459291 1.01293498,9.61799359 Z M14.4770179,15.2200976 C13.9171008,14.8117297 13.3086228,14.4685442 12.6633168,14.194778 C13.3607688,12.807044 13.7665294,11.2475544 13.8362746,9.61799359 L17.2273906,9.61799359 C17.0914852,11.8459291 16.0544327,13.8326896 14.4770179,15.2200976 Z" id="Shape"></path>
                            </g>
                        </g>
                    </g>
                </g>
            </g>
        </g>
    </g>
</svg>