<?xml version="1.0" encoding="UTF-8"?>
<svg width="21px" height="21px" viewBox="0 0 21 21" version="1.1" xmlns="http://www.w3.org/2000/svg" xmlns:xlink="http://www.w3.org/1999/xlink">
    <!-- Generator: Sketch 59.1 (86144) - https://sketch.com -->
    <title>Stroke 1</title>
    <desc>Created with Sketch.</desc>
    <g id="For-Build" stroke="none" stroke-width="1" fill="none" fill-rule="evenodd">
        <g id="M-Tablet---Who-we-are" transform="translate(-454.000000, -1282.000000)" stroke="#4E9D2D" stroke-width="0.960000038">
            <g id="MAP" transform="translate(0.000000, 687.000000)">
                <g id="OVERLAY" transform="translate(0.000000, -76.000000)">
                    <g id="CARD-2" transform="translate(408.000000, 191.000000)">
                        <g id="Contact-us" transform="translate(46.800002, 480.892231)">
                            <path d="M3.81519029,0.687291077 L7.03086789,3.91306321 C7.47223541,4.29256581 7.47223541,4.98832058 7.03086789,5.43107362 L5.26539784,7.20208577 C6.52644788,9.22609966 7.1569729,10.1748562 8.35497043,11.3766144 C9.48991547,12.5151222 10.687913,13.210877 12.3272781,14.1596335 L14.0927481,12.3886214 C14.5341156,12.0091187 15.2276931,12.0091187 15.6060082,12.3886214 L18.8216858,15.6776439 C19.3261058,16.120397 19.3261058,16.8794022 18.8216858,17.3221552 C18.4433707,17.7649082 18.0650557,18.1444108 17.6867407,18.5239134 C12.5794881,23.710449 -4.19247745,6.94908403 0.977827708,1.82579889 C1.35614272,1.44629628 1.73445773,1.06679368 2.11277274,0.687291077 C2.61719276,0.181287606 3.37382278,0.181287606 3.81519029,0.687291077 Z" id="Stroke-1"></path>
                        </g>
                    </g>
                </g>
            </g>
        </g>
    </g>
</svg>