<?xml version="1.0" encoding="UTF-8"?>
<svg width="22px" height="22px" viewBox="0 0 22 22" version="1.1" xmlns="http://www.w3.org/2000/svg" xmlns:xlink="http://www.w3.org/1999/xlink">
    <!-- Generator: Sketch 61.2 (89653) - https://sketch.com -->
    <title>download</title>
    <desc>Created with Sketch.</desc>
    <g id="Final-Design" stroke="none" stroke-width="1" fill="none" fill-rule="evenodd">
        <g id="Image-&amp;-video-library-XS-Mobile" transform="translate(-14.000000, -993.000000)">
            <g id="Image-1-Copy-8" transform="translate(14.000000, 723.000000)">
                <g id="download" transform="translate(1.000000, 271.000000)">
                    <g>
                        <circle id="Oval" stroke="#4E9D2D" stroke-width="0.5" fill-opacity="0.049333479" fill="#D8D8D8" cx="9.93600018" cy="9.93600018" r="9.93600018"></circle>
                        <g id="noun_Download_2559415" transform="translate(6.624000, 6.256000)" fill="#4E9D2D" fill-rule="nonzero">
                            <path d="M6.269231,7.61486222 L0.365860472,7.61486222 C0.238155911,7.61486222 0.1347907,7.51115246 0.1347907,7.38302221 C0.1347907,7.25489197 0.238155911,7.15118221 0.365860472,7.15118221 L6.26907695,7.15118221 C6.39678151,7.15118221 6.50014672,7.25489197 6.50014672,7.38302221 C6.50014672,7.51115246 6.39678151,7.61486222 6.269231,7.61486222 Z" id="Path"></path>
                            <path d="M3.31754573,6.04252331 C3.18984117,6.04252331 3.08647596,5.93881355 3.08647596,5.81068331 L3.08647596,0.307728966 C3.08647596,0.179598723 3.18984117,0.0758889614 3.31754573,0.0758889614 C3.4452503,0.0758889614 3.54861551,0.179598723 3.54861551,0.307728966 L3.54861551,5.81068331 C3.54861551,5.93865899 3.44509625,6.04252331 3.31754573,6.04252331 Z" id="Path"></path>
                            <path d="M3.31739169,6.15952523 C3.26409159,6.15952523 3.2107915,6.14113259 3.16735038,6.10403819 L0.721861967,4.00758631 C0.624812662,3.92443303 0.613259174,3.77806471 0.696136199,3.68069191 C0.77916727,3.58331911 0.925049319,3.57188166 1.02194458,3.65488039 L3.30553011,5.61238282 L5.25498875,3.66693607 C5.34526,3.57667302 5.49175824,3.57698214 5.5817214,3.66786343 C5.67168457,3.75859015 5.67137647,3.90542215 5.58079712,3.99568519 L3.4803729,6.09198251 C3.43554536,6.13680491 3.37654555,6.15952523 3.31739169,6.15952523 Z" id="Path"></path>
                        </g>
                    </g>
                </g>
            </g>
        </g>
    </g>
</svg>