<?xml version="1.0" encoding="UTF-8"?>
<svg width="36px" height="36px" viewBox="0 0 36 36" version="1.1" xmlns="http://www.w3.org/2000/svg" xmlns:xlink="http://www.w3.org/1999/xlink">
    <!-- Generator: Sketch 59.1 (86144) - https://sketch.com -->
    <title>noun_forward_1021069</title>
    <desc>Created with Sketch.</desc>
    <g id="FINAL-DESIGN" stroke="none" stroke-width="1" fill="none" fill-rule="evenodd">
        <g id="Profile---overlay-XXL-Desktop" transform="translate(-1038.000000, -683.000000)" fill="#5C5C5C" fill-rule="nonzero">
            <g id="noun_forward_1021069" transform="translate(1038.000000, 683.000000)">
                <g id="Group">
                    <g id="Shape">
                        <path d="M23.3876198,19.0400328 L10.0573032,19.0400328 C9.4733708,19.0400328 9,18.5514908 9,17.9868392 C9,17.4051762 9.4876194,16.9336454 10.0573032,16.9336454 L23.361298,16.9336454 L19.2209206,12.793268 C18.8189702,12.3913176 18.8140598,11.717543 19.2266028,11.305 C19.6270808,10.904522 20.3054662,10.8899128 20.714871,11.2993176 L26.581665,17.1661116 C26.6137238,17.1912644 26.6445092,17.2184974 26.6738074,17.2477956 C26.8811216,17.4551096 26.9830146,17.7283938 26.9820836,18 C26.9830146,18.2716062 26.8811216,18.5448904 26.6738074,18.7522044 C26.6445092,18.7815026 26.6137238,18.8087356 26.581665,18.8338884 L20.714871,24.7006824 C20.3054662,25.1100872 19.6270808,25.095478 19.2266028,24.695 C18.8140598,24.282457 18.8189702,23.6086824 19.2209206,23.206732 L23.3876198,19.0400328 Z M18,36 C8.0588746,36 0,27.9411254 0,18 C0,8.0588746 8.0588746,0 18,0 C27.9411254,0 36,8.0588746 36,18 C36,27.9411254 27.9411254,36 18,36 Z M18,34 C26.836556,34 34,26.836556 34,18 C34,9.163444 26.836556,2 18,2 C9.163444,2 2,9.163444 2,18 C2,26.836556 9.163444,34 18,34 Z"></path>
                    </g>
                </g>
            </g>
        </g>
    </g>
</svg>