<?xml version="1.0" encoding="UTF-8"?>
<svg width="18px" height="24px" viewBox="0 0 18 24" version="1.1" xmlns="http://www.w3.org/2000/svg" xmlns:xlink="http://www.w3.org/1999/xlink">
    <!-- Generator: Sketch 59.1 (86144) - https://sketch.com -->
    <title>Group 5</title>
    <desc>Created with Sketch.</desc>
    <g id="For-Build" stroke="none" stroke-width="1" fill="none" fill-rule="evenodd">
        <g id="M-Tablet---Who-we-are" transform="translate(-454.000000, -1147.000000)" fill="#4E9D2D">
            <g id="MAP" transform="translate(0.000000, 687.000000)">
                <g id="OVERLAY" transform="translate(0.000000, -76.000000)">
                    <g id="CARD-2" transform="translate(408.000000, 191.000000)">
                        <g id="address" transform="translate(46.800002, 345.292225)">
                            <g id="Group-5" transform="translate(0.000000, 0.307788)">
                                <path d="M8.58480093,0.999600108 C4.41000048,0.999600108 0.999600108,4.41000048 0.999600108,8.58480093 C0.999600108,12.0540013 3.7044004,14.8764016 5.70360062,17.5224019 L8.58480093,21.2856023 L11.4660012,17.5224019 C13.4652015,14.8764016 16.1700017,12.0540013 16.1700017,8.58480093 C16.1700017,4.41000048 12.7596014,0.999600108 8.58480093,0.999600108 M8.58480093,0 C13.2888014,0 17.1696019,3.82200041 17.1696019,8.58480093 C17.1696019,12.4068013 14.4060016,15.2880016 12.2304013,18.110402 L8.99640097,22.4028024 C8.76120094,22.6380024 8.40840091,22.6380024 8.17320088,22.4028024 L4.93920053,18.110402 C2.7636003,15.2880016 0,12.4068013 0,8.58480093 C0,3.82200041 3.82200041,0 8.58480093,0" id="Fill-1"></path>
                                <path d="M8.58480093,6.35040068 C7.35000079,6.35040068 6.35040068,7.35000079 6.35040068,8.58480093 C6.35040068,9.81960106 7.35000079,10.8192012 8.58480093,10.8192012 C9.81960106,10.8192012 10.8192012,9.81960106 10.8192012,8.58480093 C10.8192012,7.35000079 9.81960106,6.35040068 8.58480093,6.35040068 M8.58480093,5.35080058 C10.3488011,5.35080058 11.8188013,6.82080074 11.8188013,8.58480093 C11.8188013,10.3488011 10.3488011,11.8188013 8.58480093,11.8188013 C6.82080074,11.8188013 5.35080058,10.3488011 5.35080058,8.58480093 C5.35080058,6.82080074 6.82080074,5.35080058 8.58480093,5.35080058" id="Fill-3"></path>
                            </g>
                        </g>
                    </g>
                </g>
            </g>
        </g>
    </g>
</svg>