<?xml version="1.0" encoding="UTF-8"?>
<svg width="30px" height="23px" viewBox="0 0 30 23" version="1.1" xmlns="http://www.w3.org/2000/svg" xmlns:xlink="http://www.w3.org/1999/xlink">
    <!-- Generator: Sketch 59.1 (86144) - https://sketch.com -->
    <title>noun_List_1184630</title>
    <desc>Created with Sketch.</desc>
    <g id="For-Build" stroke="none" stroke-width="1" fill="none" fill-rule="evenodd">
        <g id="L-Desktop---Who-we-are" transform="translate(-301.000000, -723.000000)" fill="#333333" fill-rule="nonzero">
            <g id="MAP/SIDEBAR/PINS" transform="translate(0.000000, 690.000000)">
                <g id="SIDEBAR">
                    <g id="noun_List_1184630" transform="translate(301.000000, 33.000000)">
                        <g id="Group">
                            <path d="M2.98072433,0.120258538 C1.34236192,0.120258538 0,1.46606307 0,3.10862575 C0,4.75118843 1.34236192,6.09699297 2.98072433,6.09699297 C4.61908675,6.09699297 5.96144866,4.75118843 5.96144866,3.10862575 C5.96144866,1.46606307 4.61908675,0.120258538 2.98072433,0.120258538 Z M2.98072433,1.44842174 C3.90312968,1.44842174 4.63668229,2.1838556 4.63668229,3.10862575 C4.63668229,4.03339591 3.90312968,4.76882976 2.98072433,4.76882976 C2.05831898,4.76882976 1.32476637,4.03339591 1.32476637,3.10862575 C1.32476637,2.1838556 2.05831898,1.44842174 2.98072433,1.44842174 Z M8.54888298,2.44454415 C8.31220249,2.45561943 8.09939995,2.59246108 7.99065472,2.80351015 C7.88190949,3.01455921 7.89374714,3.2677434 8.02170752,3.46766844 C8.14966789,3.66759348 8.37430535,3.78387755 8.6109814,3.77270736 L28.4824769,3.77270736 C28.7213556,3.77609351 28.9435481,3.65026607 29.063973,3.44340663 C29.184398,3.23654718 29.184398,2.98070432 29.063973,2.77384488 C28.9435481,2.56698544 28.7213556,2.441158 28.4824769,2.44454415 L8.6109814,2.44454415 C8.59029331,2.44357094 8.56957107,2.44357094 8.54888298,2.44454415 Z M2.98072433,8.42127858 C1.34236192,8.42127858 0,9.76708311 0,11.4096458 C0,13.0522184 1.34236192,14.398013 2.98072433,14.398013 C4.61908675,14.398013 5.96144866,13.0522184 5.96144866,11.4096458 C5.96144866,9.76708311 4.61908675,8.42127858 2.98072433,8.42127858 Z M2.98072433,9.74944179 C3.90312968,9.74944179 4.63668229,10.4848756 4.63668229,11.4096458 C4.63668229,12.3344126 3.90312968,13.0698498 2.98072433,13.0698498 C2.05831898,13.0698498 1.32476637,12.3344126 1.32476637,11.4096458 C1.32476637,10.4848756 2.05831898,9.74944179 2.98072433,9.74944179 Z M8.54888298,10.7455642 C8.31220249,10.7566395 8.09939995,10.8934811 7.99065472,11.1045302 C7.88190949,11.3155793 7.89374714,11.5687634 8.02170752,11.7686885 C8.14966789,11.9686135 8.37430535,12.0848976 8.6109814,12.0737274 L28.4824769,12.0737274 C28.7213556,12.0771136 28.9435481,11.9512861 29.063973,11.7444267 C29.184398,11.5375672 29.184398,11.2817244 29.063973,11.0748649 C28.9435481,10.8680055 28.7213556,10.742178 28.4824769,10.7455642 L8.6109814,10.7455642 C8.59029331,10.744591 8.56957107,10.744591 8.54888298,10.7455642 L8.54888298,10.7455642 Z M2.98072433,16.7222986 C1.34236192,16.7222986 0,18.0680932 0,19.7106658 C0,21.3532385 1.34236192,22.699033 2.98072433,22.699033 C4.61908675,22.699033 5.96144866,21.3532385 5.96144866,19.7106658 C5.96144866,18.0680932 4.61908675,16.7222986 2.98072433,16.7222986 Z M2.98072433,18.0504618 C3.90312968,18.0504618 4.63668229,18.785899 4.63668229,19.7106658 C4.63668229,20.6354327 3.90312968,21.3708698 2.98072433,21.3708698 C2.05831898,21.3708698 1.32476637,20.6354327 1.32476637,19.7106658 C1.32476637,18.785899 2.05831898,18.0504618 2.98072433,18.0504618 Z M8.54888298,19.0465842 C8.31220249,19.0576595 8.09939995,19.1945012 7.99065472,19.4055502 C7.88190949,19.6165993 7.89374714,19.8697835 8.02170752,20.0697085 C8.14966789,20.2696336 8.37430535,20.3859176 8.6109814,20.3747474 L28.4824769,20.3747474 C28.7213556,20.3781336 28.9435481,20.2523062 29.063973,20.0454467 C29.184398,19.8385873 29.184398,19.5827444 29.063973,19.375885 C28.9435481,19.1690255 28.7213556,19.0431981 28.4824769,19.0465842 L8.6109814,19.0465842 C8.59029331,19.045611 8.56957107,19.045611 8.54888298,19.0465842 Z" id="Shape"></path>
                        </g>
                    </g>
                </g>
            </g>
        </g>
    </g>
</svg>